<?xml version="1.0" encoding="utf-8"?>
<!-- Generator: Adobe Illustrator 27.5.0, SVG Export Plug-In . SVG Version: 6.00 Build 0)  -->
<svg version="1.1" id="Layer_1" xmlns="http://www.w3.org/2000/svg" xmlns:xlink="http://www.w3.org/1999/xlink" x="0px" y="0px"
	 viewBox="60 60 270 270" style="enable-background:new 0 0 384.152 384.152;" xml:space="preserve">
<g>
	<linearGradient id="SVGID_1_" gradientUnits="userSpaceOnUse" x1="192.0759" y1="465.3326" x2="192.0759" y2="186.4042">
		<stop  offset="0" style="stop-color:#34B5B9"/>
		<stop  offset="0.6685" style="stop-color:#072B4D"/>
		<stop  offset="1" style="stop-color:#000000"/>
	</linearGradient>
	<rect style="fill:url(#SVGID_1_);" width="384.152" height="384.152"/>
	<g>
		<g>
			<g>
				<g>
					<g>
						<g>
							<path style="fill:#EBEBEC;" d="M276.192,230.783c0.011,0.498-0.008,4.064-0.015,4.565
								c-0.426,29.924-32.927,53.725-72.594,53.16c-39.667-0.564-71.479-25.28-71.053-55.204c0.007-0.501,0.046-0.996,0.071-1.493
								L276.192,230.783z"/>
							<path style="fill:#9D9FA2;" d="M204.974,288.81c-0.465,0-0.929-0.003-1.395-0.01c-19.248-0.274-37.267-6.188-50.737-16.653
								c-13.494-10.484-20.812-24.28-20.604-38.847c0.005-0.352,0.026-0.702,0.046-1.052l0.026-0.452
								c0.007-0.155,0.135-0.276,0.289-0.277l143.59-1.028c0.001,0,0.002,0,0.002,0c0.159,0,0.289,0.127,0.292,0.286
								c0.011,0.509-0.008,4.096-0.015,4.575c-0.207,14.566-7.914,28.149-21.701,38.245
								C241.34,283.431,223.703,288.81,204.974,288.81z M132.878,232.101l-0.01,0.182c-0.02,0.341-0.04,0.682-0.045,1.025
								c-0.205,14.379,7.033,28.008,20.379,38.377c13.37,10.388,31.264,16.259,50.386,16.531
								c19.146,0.277,37.176-5.087,50.836-15.091c13.635-9.985,21.258-23.403,21.462-37.782c0.006-0.423,0.022-3.266,0.018-4.267
								L132.878,232.101z"/>
						</g>
						<g>
							<path style="fill:#0086B6;" d="M136.639,251.304c-0.299-0.907-0.672-1.795-1.051-2.683
								c16.835,14.131,41.135,23.198,68.227,23.583c26.969,0.384,51.415-7.912,68.633-21.448c-0.862,2.395-1.853,4.729-3.318,6.835
								c-17.371,11.653-40.315,18.607-65.367,18.251c-25.496-0.363-48.608-8.22-65.736-20.74
								C137.432,253.874,137.036,252.509,136.639,251.304z"/>
						</g>
						<g>
							<path style="fill:#0086B6;" d="M136.639,251.304c-0.299-0.907-0.672-1.795-1.051-2.683
								c16.835,14.131,41.135,23.198,68.227,23.583c26.969,0.384,51.415-7.912,68.633-21.448c-0.862,2.395-1.853,4.729-3.318,6.835
								c-17.371,11.653-40.315,18.607-65.367,18.251c-25.496-0.363-48.608-8.22-65.736-20.74
								C137.432,253.874,137.036,252.509,136.639,251.304z"/>
						</g>
						<g>
							<path style="fill:#0086B6;" d="M269.816,256.497c-0.222,0.368-0.438,0.739-0.686,1.094
								c-17.371,11.653-40.315,18.607-65.367,18.251c-25.496-0.363-48.608-8.22-65.736-20.74c-0.162-0.334-0.308-0.679-0.444-1.028
								c16.727,13.113,40.119,20.635,66.14,21.005C229.381,275.444,252.774,268.799,269.816,256.497z"/>
						</g>
						<path style="fill:#D5D5D7;" d="M268.859,243.033c-4.296,4.023-9.252,7.292-14.48,9.972c-5.47,2.804-11.255,4.968-17.166,6.639
							c-5.839,1.65-11.816,2.825-17.839,3.545c-2.872,0.343-5.757,0.581-8.647,0.708c-2.516,0.111-5.014,0.075-7.531,0.019
							c-3.068-0.069-6.168-0.087-9.207,0.396c-2.419,0.384-5.213,1.146-6.694,3.267c-1.826,2.615-0.953,5.883,0.656,8.353
							c1.748,2.684,4.235,4.897,6.84,6.727c4.17,2.931,8.995,4.753,13.984,5.767c-1.717,0.068-3.443,0.107-5.189,0.082
							c-39.667-0.564-71.479-25.28-71.053-55.204c0.007-0.501,0.046-0.996,0.071-1.493l143.591-1.028
							c0.008,0.351,0.001,2.22-0.007,3.472C274.133,237.475,271.652,240.417,268.859,243.033z"/>
						<path style="fill:#D5D5D7;" d="M261.622,242.114c-5.646,4.605-12.038,8.288-18.797,10.996
							c-7.934,3.179-16.389,5.157-24.871,6.131c-9.124,1.048-18.291,0.816-27.396-0.303c-4.617-0.567-9.277-1.228-13.831-2.189
							c-3.269-0.69-6.41-1.898-9.668-2.643c-2.726-0.624-6.104-1.279-8.701,0.131c-1.526,0.829-2.347,2.327-2.234,4.057
							c0.133,2.04,1.148,3.975,2.208,5.679c1.308,2.102,2.873,4.045,4.513,5.896c3.001,3.388,6.326,6.546,9.902,9.322
							c3.329,2.584,6.944,4.792,10.724,6.653c0.284,0.14,0.574,0.264,0.861,0.399c-30.21-6.788-52.156-28.055-51.802-52.939
							c0.007-0.501,0.046-0.996,0.071-1.493l139.952-1.002C269.368,234.987,265.699,238.789,261.622,242.114z"/>
					</g>
					<g>
						
							<ellipse transform="matrix(0.0142 -0.9999 0.9999 0.0142 -28.4702 431.1242)" style="fill:#EBEBEC;" cx="204.415" cy="230.001" rx="25.918" ry="71.831"/>
						<path style="fill:#9D9FA2;" d="M206.945,256.229c-0.965,0-1.931-0.007-2.903-0.021c-39.764-0.566-71.948-12.782-71.742-27.233
							c0.1-7.054,7.734-13.552,21.494-18.298c13.667-4.713,31.783-7.157,50.994-6.883c39.765,0.566,71.948,12.782,71.743,27.233
							c-0.1,7.054-7.734,13.552-21.494,18.297C242.061,253.799,225.078,256.229,206.945,256.229z M201.884,204.358
							c-18.069,0-34.983,2.419-47.899,6.872c-13.51,4.658-21.004,10.964-21.1,17.754c-0.201,14.128,31.724,26.079,71.166,26.64
							c19.152,0.271,37.192-2.161,50.796-6.852c13.51-4.659,21.004-10.964,21.1-17.754c0.201-14.128-31.724-26.079-71.167-26.64
							C203.812,204.365,202.845,204.358,201.884,204.358z"/>
					</g>
					
						<ellipse transform="matrix(0.0142 -0.9999 0.9999 0.0142 -26.6596 430.0523)" style="fill:#0086B6;" cx="204.777" cy="228.547" rx="22.711" ry="62.943"/>
					
						<ellipse transform="matrix(0.0142 -0.9999 0.9999 0.0142 -26.1932 429.6053)" style="fill:#0086B6;" cx="204.783" cy="228.087" rx="20.058" ry="55.591"/>
					<path style="fill:#00A8CE;" d="M203.395,205.83c0.568,0.003,1.133,0.001,1.705,0.009c0.343,0.005,0.682,0.017,1.024,0.024
						l-0.245,17.257l13.999-16.434c1.103,0.112,2.195,0.233,3.274,0.365l-13.017,15.281l26.853-12.896
						c1.424,0.325,2.809,0.669,4.157,1.031l-26.344,12.651l40.394-7.538c1.349,0.667,2.602,1.36,3.754,2.076l-41.076,7.665
						l49.179,0.7c0.361,0.898,0.56,1.813,0.622,2.738l-53.557-0.762l42.276,14.182c-1.14,0.575-2.353,1.128-3.638,1.658
						l-43.543-14.609l18.008,20.818c-1.081,0.136-2.174,0.262-3.283,0.376l-18.151-20.982l-0.31,21.823
						c-0.342-0.003-0.681,0-1.024-0.005c-0.572-0.008-1.136-0.026-1.704-0.04l0.289-20.306l-15.331,19.287
						c-1.07-0.122-2.127-0.254-3.173-0.395l15.378-19.345l-31.477,16.179c-1.311-0.351-2.592-0.716-3.826-1.101l31.333-16.105
						l-47.048,8.872c-1.033-0.731-1.958-1.483-2.777-2.253l44.483-8.388l-48.701-0.693c0.089-0.923,0.314-1.831,0.7-2.719
						l55.267,0.786l-35.22-13.881c1.385-0.434,2.831-0.842,4.323-1.229l33.438,13.18l-13.905-16.523
						c1.096-0.106,2.207-0.2,3.328-0.284l13.333,15.844L203.395,205.83z"/>
					<g>
						
							<ellipse transform="matrix(0.0142 -0.9999 0.9999 0.0142 -25.3517 428.7993)" style="fill:#EBEBEC;" cx="204.795" cy="227.257" rx="18.403" ry="51.003"/>
						<path style="fill:#9D9FA2;" d="M206.591,245.964c-0.686,0-1.372-0.005-2.062-0.015c-28.282-0.402-51.171-9.115-51.024-19.423
							c0.147-10.307,23.296-18.362,51.556-17.963c13.655,0.194,26.469,2.297,36.083,5.921c9.706,3.659,15.012,8.454,14.94,13.501
							c-0.072,5.047-5.512,9.689-15.319,13.07C231.544,244.237,219.475,245.964,206.591,245.964z M203.009,209.134
							c-27.021,0-48.781,7.661-48.92,17.402c-0.142,9.985,22.489,18.432,50.448,18.83c13.584,0.19,26.388-1.533,36.038-4.861
							c9.557-3.295,14.857-7.744,14.925-12.527c0.068-4.783-5.104-9.38-14.563-12.946c-9.552-3.601-22.296-5.69-35.885-5.884
							C204.369,209.139,203.687,209.134,203.009,209.134z"/>
					</g>
					
						<ellipse transform="matrix(0.0142 -0.9999 0.9999 0.0142 -23.2956 426.8284)" style="fill:#D5D5D7;" cx="204.824" cy="225.229" rx="14.563" ry="41.878"/>
					<path style="fill:#3273A8;" d="M204.962,215.495c-14.052-0.2-25.5,3.6-25.57,8.486c-0.069,4.887,11.266,9.01,25.318,9.21
						s25.5-3.6,25.57-8.486C230.35,219.819,219.015,215.695,204.962,215.495z"/>
					<g>
						<path style="fill:#D5D5D7;" d="M230.281,224.706c-0.01,0.728-0.279,1.432-0.765,2.102c-2.67-3.905-12.655-6.917-24.613-7.087
							c-11.958-0.17-22.025,2.557-24.804,6.384c-0.468-0.684-0.716-1.395-0.705-2.123c0.07-4.887,11.518-8.686,25.57-8.486
							C219.015,215.695,230.35,219.819,230.281,224.706z"/>
					</g>
				</g>
				<g>
					<path style="fill:#00A8CE;" d="M250.576,262.44c-3.406,0.994-6.639,2.737-9.423,4.925c-2.33,1.831-4.466,4.229-4.966,7.247
						c-0.189,1.139-0.185,2.465,0.529,3.439c0.804,1.099,2.21,1.265,3.466,1.075c3.965-0.6,7.542-3.033,10.544-5.566
						c1.053-0.888,2.211-1.748,3.072-2.834c0.499-0.629,0.983-1.392,1.222-2.198c0.888-1.156,1.776-2.482,1.982-3.935
						C257.535,260.838,252.723,261.814,250.576,262.44z"/>
					<path style="fill:#362F90;" d="M240.229,275.357c-0.001-0.012-0.002-0.016-0.003-0.026c0-0.002,0.001-0.003,0.001-0.005
						c0.001,0.012,0.002,0.023,0.003,0.035C240.23,275.36,240.23,275.359,240.229,275.357z"/>
					<polygon style="fill:#362F90;" points="240.226,275.323 240.227,275.32 240.228,275.326 240.227,275.331 					"/>
				</g>
				<path style="fill:#00A8CE;" d="M228.352,277.449c-0.758-0.193-1.504,0.431-1.941,0.99c-0.051,0.065-0.087,0.142-0.132,0.213
					c-0.239,0.258-0.43,0.55-0.553,0.911c-0.166,0.488-0.202,1.022,0.086,1.477c0.127,0.201,0.288,0.367,0.466,0.51
					c0.102,0.126,0.217,0.241,0.348,0.342c0.435,0.337,1.002,0.421,1.529,0.464c0.453,0.037,0.926-0.04,1.357-0.18
					c0.587-0.19,1.208-0.548,1.626-1.007c0.167-0.156,0.303-0.334,0.425-0.522c0.182-0.226,0.35-0.466,0.492-0.729
					c0.198-0.366,0.238-0.838,0.143-1.241c-0.041-0.172-0.13-0.321-0.246-0.444c-0.056-0.174-0.139-0.334-0.286-0.437
					c-0.516-0.361-1.119-0.481-1.721-0.422c-0.201-0.034-0.406-0.059-0.609-0.057c-0.286,0.003-0.569,0.069-0.847,0.126
					c-0.03,0.006-0.059,0.018-0.089,0.024C228.383,277.463,228.368,277.453,228.352,277.449z"/>
			</g>
			<g>
				<g>
					<g>
						<g>
							<path style="fill:#EBEBEC;" d="M140.507,252.241c-0.415-0.994-0.73-2.011-0.899-3.05c-0.167-1.032-0.043-2.154,0.563-3.006
								c2.909-4.089,8.621,4.072,10.148,6.086c2.507,3.307,4.564,6.944,6.194,10.758c0.539,1.261,4.295,9.317,1.049,9.34
								c-0.729,0.005-1.37-0.458-1.936-0.917c-3.79-3.078-7.062-6.804-9.856-10.797
								C143.975,258.092,141.775,255.275,140.507,252.241z"/>
							<path style="fill:#9D9FA2;" d="M157.549,272.662c-0.827,0-1.521-0.507-2.107-0.983c-3.557-2.889-6.892-6.541-9.911-10.856
								c-0.307-0.439-0.626-0.884-0.95-1.338c-1.612-2.255-3.28-4.587-4.343-7.132l0,0c-0.454-1.087-0.755-2.106-0.918-3.116
								c-0.201-1.239,0.017-2.383,0.614-3.222c0.585-0.822,1.319-1.244,2.184-1.253c0.01,0,0.02,0,0.03,0
								c2.93,0,6.543,4.841,8.089,6.911l0.315,0.421c2.445,3.225,4.541,6.866,6.229,10.82l0.138,0.316
								c1.319,3.005,2.952,7.186,1.913,8.79c-0.269,0.415-0.708,0.637-1.268,0.641C157.559,272.662,157.554,272.662,157.549,272.662
								z M140.776,252.129c1.038,2.484,2.686,4.788,4.279,7.017c0.325,0.455,0.645,0.903,0.953,1.343
								c2.989,4.27,6.287,7.883,9.801,10.737c0.508,0.413,1.103,0.852,1.74,0.852c0.003,0,0.007,0,0.01,0
								c0.37-0.003,0.619-0.122,0.783-0.375c0.451-0.695,0.477-2.689-1.958-8.237l-0.14-0.322c-1.67-3.911-3.742-7.509-6.158-10.696
								l-0.318-0.424c-1.364-1.829-4.983-6.677-7.62-6.677c-0.008,0-0.016,0-0.024,0c-0.676,0.008-1.237,0.338-1.715,1.008
								c-0.506,0.712-0.689,1.703-0.513,2.79C140.052,250.109,140.34,251.085,140.776,252.129L140.776,252.129z"/>
						</g>
						<path style="fill:#EBEBEC;" d="M155.488,269.57c-2.096-1.361-3.92-3.111-5.542-5.003c-1.853-2.16-3.54-4.485-5.007-6.924
							c-0.733-1.219-1.4-2.473-2.021-3.752c-0.451-0.93-0.907-1.856-1.296-2.814c-0.562-1.382-1.16-3.124-0.924-4.685
							c-0.08,0.089-0.158,0.184-0.234,0.29c-0.574,0.808-0.692,1.87-0.534,2.849c0.159,0.984,0.458,1.948,0.852,2.89
							c1.202,2.875,3.287,5.545,4.987,7.975c2.649,3.784,5.749,7.315,9.341,10.232c0.536,0.436,1.144,0.875,1.835,0.87
							c0.517-0.004,0.843-0.226,1.031-0.594C157.114,270.529,156.281,270.085,155.488,269.57z"/>
						<g>
							<g>
								<path style="fill:#B6B8BA;" d="M150.319,252.272c-1.137-1.5-4.596-6.408-7.489-7.126c-0.215,0.671-0.24,1.411-0.127,2.112
									c0.168,1.039,0.483,2.056,0.899,3.05c1.268,3.034,3.468,5.851,5.263,8.415c2.795,3.993,6.067,7.719,9.856,10.797
									c0.016,0.013,0.032,0.025,0.048,0.038c-0.403-2.461-1.927-5.758-2.256-6.527
									C154.884,259.216,152.826,255.579,150.319,252.272z"/>
								<path style="fill:#9D9FA2;" d="M158.768,269.849c-0.064,0-0.128-0.021-0.18-0.063l-0.055-0.043
									c-3.554-2.887-6.889-6.539-9.908-10.854c-0.308-0.439-0.627-0.886-0.952-1.34c-1.612-2.255-3.279-4.586-4.342-7.13
									c-0.453-1.085-0.753-2.104-0.917-3.116c-0.128-0.791-0.081-1.568,0.137-2.248c0.048-0.146,0.201-0.229,0.348-0.194
									c2.764,0.686,5.969,4.981,7.338,6.815l0.314,0.418l0,0c2.445,3.225,4.541,6.866,6.229,10.82l0.136,0.313
									c0.485,1.105,1.772,4.039,2.139,6.281c0.019,0.119-0.036,0.237-0.14,0.298C158.871,269.836,158.82,269.849,158.768,269.849z
									 M143.032,245.51c-0.123,0.525-0.137,1.107-0.042,1.701c0.157,0.966,0.444,1.942,0.88,2.984
									c1.038,2.483,2.685,4.787,4.278,7.015c0.326,0.455,0.647,0.904,0.955,1.345c2.823,4.032,5.92,7.478,9.215,10.253
									c-0.482-2.031-1.516-4.387-1.935-5.344l-0.139-0.319c-1.67-3.911-3.742-7.509-6.158-10.696l-0.316-0.422
									C148.486,250.305,145.538,246.356,143.032,245.51z"/>
							</g>
						</g>
						<g>
							<g>
								<path style="fill:#EBEBEC;" d="M150.319,252.272c-1.012-1.335-3.862-5.367-6.516-6.746
									c-1.869,1.459-4.756,4.666-5.149,10.737c-0.549,8.486,11.318,14.34,19.167,9.95c-0.538-1.469-1.12-2.743-1.309-3.184
									C154.884,259.216,152.826,255.579,150.319,252.272z"/>
								<path style="fill:#9D9FA2;" d="M151.799,268.013c-2.729,0-5.549-0.795-8.03-2.36c-3.673-2.317-5.644-5.747-5.406-9.409
									c0.406-6.27,3.47-9.551,5.26-10.949c0.091-0.071,0.214-0.081,0.314-0.029c2.477,1.287,5.06,4.748,6.302,6.412l0.313,0.417
									l0,0c2.445,3.225,4.541,6.866,6.229,10.82l0.139,0.319c0.256,0.583,0.732,1.669,1.175,2.878
									c0.049,0.135-0.007,0.285-0.132,0.355C156.116,267.502,153.987,268.013,151.799,268.013z M143.834,245.874
									c-1.729,1.4-4.508,4.537-4.888,10.408c-0.223,3.442,1.649,6.678,5.135,8.877c4.145,2.615,9.486,2.973,13.379,0.918
									c-0.411-1.096-0.838-2.069-1.075-2.609l-0.141-0.324c-1.67-3.911-3.742-7.509-6.158-10.696l0,0l0,0l-0.315-0.42
									C148.584,250.437,146.144,247.167,143.834,245.874z"/>
							</g>
						</g>
						<g>
							<path style="fill:#EBEBEC;" d="M143.02,249.191c-0.331-0.163-0.641-0.156-0.925-0.053c-1.084,0.895-1.655,2.501-1.778,3.855
								c-0.057,0.625-0.029,1.291,0.225,1.874c0.267,0.612,0.8,1.005,1.4,1.262c0.625,0.268,1.461,0.459,2.106,0.15
								c0.571-0.273,0.821-0.964,0.933-1.544c0.246-1.276,0.007-2.779-0.565-3.942C144.109,250.165,143.666,249.508,143.02,249.191z
								"/>
						</g>
						<g>
							<path style="fill:#D5D5D7;" d="M156.513,263.03c-1.629-3.814-3.687-7.451-6.194-10.758c-1.011-1.335-3.862-5.367-6.516-6.746
								c-0.657,0.513-1.44,1.248-2.196,2.242c0.701-0.152,1.427-0.16,2.144,0.019c1.227,0.306,2.295,1.078,3.164,1.974
								c1.939,2.001,3.224,4.762,3.775,7.476c0.261,1.288,0.411,2.733-0.044,3.994c-0.517,1.433-1.767,2.308-3.215,2.645
								c-1.549,0.36-3.182,0.286-4.673-0.277c-0.769-0.29-1.487-0.695-2.146-1.182c3.622,4.747,11.482,7,17.209,3.797
								C157.283,264.744,156.701,263.471,156.513,263.03z"/>
						</g>
					</g>
					<g>
						<g>
							<g>
								<g>
									<polygon style="fill:#EBEBEC;" points="125.921,285.932 125.922,285.931 125.918,285.93 									"/>
									<path style="fill:#9D9FA2;" d="M125.921,286.224c-0.054,0-0.108-0.015-0.155-0.045c-0.014-0.009-0.027-0.018-0.04-0.03
										c-0.103-0.089-0.132-0.241-0.063-0.363c0.077-0.136,0.247-0.187,0.385-0.118c0.121,0.06,0.187,0.198,0.156,0.329
										c-0.021,0.087-0.078,0.157-0.153,0.195v0C126.01,286.214,125.965,286.224,125.921,286.224z"/>
								</g>
								<g>
									<path style="fill:#EBEBEC;" d="M125.921,285.932C125.884,285.95,125.978,285.969,125.921,285.932L125.921,285.932z"/>
									<path style="fill:#9D9FA2;" d="M125.932,286.246c-0.006,0-0.011,0-0.017-0.001c-0.132-0.008-0.263-0.114-0.29-0.244
										c-0.026-0.129,0.046-0.271,0.164-0.33c0.093-0.046,0.204-0.04,0.291,0.017c0.111,0.073,0.177,0.229,0.136,0.355
										C126.177,286.163,126.058,286.246,125.932,286.246z M125.934,285.958l0.118,0.235L125.934,285.958z"/>
								</g>
								<g>
									<path style="fill:#EBEBEC;" d="M129.464,284.708c-0.258-0.654-0.759-1.1-1.633-0.988c-2.344,0.302-3.486,2.841-4.056,4.825
										c-0.157,0.546-0.306,1.1-0.349,1.668c-0.041,0.545-0.017,1.191,0.46,1.552c0.666,0.505,1.662,0.158,2.321-0.173
										C128.506,290.439,130.495,287.316,129.464,284.708z"/>
									<path style="fill:#9D9FA2;" d="M124.713,292.312c-0.389,0-0.726-0.104-1.002-0.314c-0.604-0.458-0.617-1.251-0.575-1.807
										c0.046-0.596,0.202-1.179,0.359-1.726c0.887-3.087,2.333-4.781,4.299-5.035c0.903-0.115,1.596,0.299,1.941,1.17l0,0
										c1.079,2.728-0.924,6.012-3.396,7.253C125.732,292.159,125.184,292.312,124.713,292.312z M128.09,283.995
										c-0.071,0-0.144,0.005-0.221,0.015c-1.713,0.221-2.996,1.774-3.812,4.616c-0.155,0.539-0.297,1.069-0.338,1.61
										c-0.052,0.677,0.054,1.077,0.344,1.297c0.532,0.402,1.389,0.113,2.014-0.201c2.242-1.126,4.05-4.152,3.115-6.517l0,0
										C128.975,284.265,128.613,283.995,128.09,283.995z"/>
								</g>
							</g>
							<g>
								<g>
									<path style="fill:#EBEBEC;" d="M123.871,284.788c-0.045-0.105-0.1-0.207-0.167-0.304c-0.544-0.798-1.385-0.66-2.066-0.09
										c-0.584,0.489-1.054,1.106-1.411,1.776c-0.677,1.272-1.383,2.644-1.611,4.081c-0.099,0.625-0.055,1.428,0.6,1.735
										c1.47,0.689,2.809-1.371,3.41-2.435C123.325,288.313,124.495,286.238,123.871,284.788z"/>
									<path style="fill:#9D9FA2;" d="M119.817,292.417c-0.27,0-0.513-0.067-0.724-0.166c-0.654-0.306-0.924-1.033-0.764-2.045
										c0.228-1.434,0.907-2.792,1.642-4.173c0.397-0.746,0.895-1.373,1.481-1.863c0.482-0.404,1.01-0.588,1.482-0.523
										c0.4,0.056,0.75,0.288,1.013,0.673c0.078,0.113,0.142,0.231,0.194,0.354l0,0c0.681,1.585-0.533,3.737-1.259,5.023
										C121.682,291.818,120.627,292.417,119.817,292.417z M122.741,284.218c-0.283,0-0.604,0.139-0.915,0.4
										c-0.528,0.442-0.979,1.01-1.34,1.69c-0.711,1.336-1.367,2.645-1.58,3.99c-0.067,0.424-0.1,1.174,0.435,1.425
										c1.13,0.527,2.271-0.967,3.031-2.314c0.673-1.191,1.799-3.185,1.232-4.505l0,0c-0.038-0.088-0.084-0.173-0.14-0.255
										c-0.169-0.248-0.375-0.39-0.61-0.423C122.816,284.22,122.779,284.218,122.741,284.218z"/>
								</g>
							</g>
							<g>
								<g>
									<path style="fill:#EBEBEC;" d="M121.723,282.307c-0.183-0.28-0.471-0.451-0.875-0.366c-0.408,0.086-0.782,0.32-1.09,0.594
										c-0.637,0.567-1.113,1.27-1.609,1.957c-0.311,0.43-0.596,0.881-0.867,1.337c-0.332,0.559-0.692,1.159-0.852,1.794
										c-0.071,0.283-0.125,0.64,0.099,0.872c0.225,0.234,0.592,0.184,0.87,0.089c1.852-0.633,2.968-2.41,4.008-3.945
										c0.201-0.297,0.395-0.605,0.499-0.948C122.043,283.244,121.982,282.704,121.723,282.307z"/>
									<path style="fill:#9D9FA2;" d="M116.974,288.956c-0.265,0-0.489-0.087-0.654-0.257c-0.366-0.38-0.225-0.937-0.172-1.147
										c0.168-0.665,0.538-1.29,0.865-1.842c0.335-0.564,0.615-0.996,0.899-1.389l0.161-0.225c0.441-0.616,0.898-1.253,1.49-1.78
										c0.389-0.346,0.812-0.575,1.224-0.662c0.48-0.1,0.91,0.078,1.18,0.492l0,0c0.301,0.461,0.384,1.085,0.218,1.63
										c-0.12,0.394-0.34,0.736-0.537,1.026l-0.171,0.253c-1.003,1.488-2.14,3.174-3.983,3.804
										C117.308,288.924,117.134,288.956,116.974,288.956z M121.051,282.211c-0.045,0-0.092,0.005-0.143,0.016
										c-0.313,0.066-0.643,0.248-0.957,0.527c-0.543,0.483-0.96,1.066-1.403,1.684l-0.163,0.226
										c-0.274,0.379-0.545,0.797-0.853,1.315c-0.339,0.573-0.672,1.134-0.82,1.717c-0.077,0.309-0.07,0.499,0.026,0.598
										c0.137,0.141,0.441,0.058,0.565,0.015c1.658-0.566,2.69-2.097,3.688-3.578l0.172-0.254
										c0.173-0.255,0.366-0.553,0.461-0.869c0.116-0.378,0.058-0.826-0.148-1.14l0,0
										C121.366,282.294,121.228,282.211,121.051,282.211z"/>
								</g>
							</g>
							<g>
								<path style="fill:#EBEBEC;" d="M144.107,259.519c-2.365-2.047-5.918-4.058-8.838-3.018
									c-1.418,0.505-2.665,2.015-3.641,3.086c-3.587,3.934-6.535,8.56-8.996,13.265c-2.106,4.026-4.454,8.831-4.309,13.498
									c0.225,7.268,16.488-2.263,18.749-3.592c2.762-1.624,5.458-3.374,8.031-5.283c2.56-1.899,5.985-3.785,5.554-7.453
									c-0.421-3.58-3.046-6.997-5.486-9.502C144.854,260.194,144.497,259.856,144.107,259.519z"/>
								<path style="fill:#9D9FA2;" d="M121.423,289.339c-0.792,0-1.479-0.132-2.024-0.432c-0.87-0.48-1.331-1.337-1.368-2.548
									c-0.144-4.653,2.166-9.482,4.343-13.642c2.818-5.387,5.775-9.746,9.039-13.326l0.309-0.342
									c0.939-1.044,2.109-2.343,3.449-2.822c3.664-1.308,7.912,2.021,9.127,3.072l0,0c0.385,0.333,0.749,0.676,1.082,1.018
									c3.342,3.431,5.215,6.685,5.566,9.671c0.399,3.392-2.313,5.323-4.705,7.026c-0.328,0.234-0.652,0.465-0.964,0.695
									c-2.46,1.825-5.095,3.559-8.057,5.3C133.693,285.083,125.908,289.339,121.423,289.339z M136.974,256.509
									c-0.542,0-1.082,0.081-1.606,0.268c-1.202,0.428-2.316,1.667-3.212,2.662l-0.312,0.345
									c-3.229,3.543-6.158,7.862-8.952,13.204c-2.143,4.095-4.417,8.841-4.276,13.353c0.031,1.004,0.38,1.676,1.066,2.054
									c2.338,1.289,8.782-0.913,17.242-5.889c2.944-1.731,5.563-3.453,8.005-5.266c0.314-0.233,0.642-0.466,0.973-0.702
									c2.371-1.688,4.824-3.434,4.465-6.482c-0.337-2.856-2.155-5.996-5.405-9.332c-0.321-0.331-0.673-0.662-1.046-0.984l0,0
									C142.942,258.897,139.919,256.509,136.974,256.509z"/>
							</g>
							<path style="fill:#D5D5D7;" d="M150.657,270.022c-0.421-3.58-3.046-6.997-5.486-9.502c-0.317-0.326-0.674-0.664-1.064-1.001
								c-2.365-2.047-5.918-4.058-8.838-3.018c-0.053,0.019-0.103,0.048-0.155,0.069c1.036-0.111,2.082-0.09,3.099,0.167
								c1.934,0.488,3.564,1.823,4.666,3.457c1.182,1.753,1.8,3.942,1.537,6.054c-0.266,2.138-1.448,4.04-2.76,5.699
								c-1.355,1.714-2.91,3.287-4.43,4.855c-1.744,1.8-3.561,3.533-5.486,5.14c-2.837,2.367-5.943,4.504-9.338,5.99
								c-0.756,0.331-1.578,0.65-2.429,0.907c4.232,1.462,15.265-5.004,17.099-6.081c2.762-1.624,5.458-3.374,8.031-5.283
								C147.663,275.575,151.089,273.69,150.657,270.022z"/>
							<path style="fill:#D5D5D7;" d="M150.657,270.022c-0.31-2.637-1.817-5.185-3.564-7.345c0.376,0.787,0.673,1.611,0.881,2.463
								c0.386,1.583,0.496,3.305,0.021,4.882c-0.446,1.48-1.323,2.799-2.335,3.953c-2.155,2.458-4.922,4.258-7.472,6.265
								c-2.765,2.177-5.497,4.413-8.431,6.359c3.384-1.536,6.429-3.32,7.316-3.842c2.762-1.624,5.458-3.374,8.031-5.283
								C147.663,275.575,151.089,273.69,150.657,270.022z"/>
						</g>
						<path style="fill:#D5D5D7;" d="M138.464,256.364c-0.285-0.02-0.572-0.018-0.858-0.006c-3.7,3.759-12.868,14.268-18.762,31.283
							c0.021,0.024,0.042,0.048,0.06,0.069c0.141,0.163,0.273,0.333,0.413,0.497c0.066,0.077,0.137,0.147,0.212,0.211
							c6.182-18.175,16.164-28.94,19.312-32.017C138.715,256.385,138.589,256.373,138.464,256.364z"/>
						<path style="fill:#FFFFFF;" d="M137.684,257.633c0,0-8.943,8.394-15.239,23.383
							C122.446,281.015,130.49,264.628,137.684,257.633z"/>
					</g>
				</g>
				<g>
					<g>
						<g>
							<path style="fill:#EBEBEC;" d="M269.584,252.241c0.415-0.994,0.73-2.011,0.899-3.05c0.167-1.032,0.043-2.154-0.563-3.006
								c-2.909-4.089-8.621,4.072-10.148,6.086c-2.507,3.307-4.565,6.944-6.194,10.758c-0.539,1.261-4.294,9.317-1.049,9.34
								c0.729,0.005,1.37-0.458,1.936-0.917c3.79-3.078,7.062-6.804,9.856-10.797C266.116,258.092,268.316,255.275,269.584,252.241z
								"/>
							<path style="fill:#9D9FA2;" d="M252.542,272.662c-0.005,0-0.01,0-0.015,0c-0.561-0.004-0.999-0.226-1.268-0.641
								c-1.039-1.604,0.595-5.787,1.915-8.793l0.136-0.313c1.689-3.955,3.785-7.595,6.229-10.82l0.314-0.419
								c1.545-2.072,5.158-6.913,8.09-6.913c0.01,0,0.02,0,0.03,0c0.865,0.01,1.6,0.432,2.184,1.253
								c0.596,0.838,0.814,1.982,0.613,3.222c-0.162,1.009-0.462,2.028-0.917,3.116l0,0c-1.064,2.546-2.732,4.879-4.345,7.135
								c-0.323,0.452-0.641,0.897-0.948,1.335c-3.021,4.316-6.355,7.968-9.911,10.856
								C254.063,272.155,253.37,272.662,252.542,272.662z M267.942,245.347c-2.638,0-6.256,4.85-7.621,6.679l-0.317,0.423
								c-2.415,3.187-4.488,6.786-6.158,10.696l-0.139,0.318c-2.437,5.55-2.411,7.545-1.96,8.241
								c0.164,0.253,0.412,0.372,0.783,0.375c0.641,0.011,1.239-0.437,1.749-0.852c3.514-2.853,6.812-6.466,9.802-10.737
								c0.307-0.439,0.626-0.886,0.951-1.34c1.595-2.23,3.244-4.536,4.282-7.021c0.436-1.044,0.724-2.02,0.879-2.983
								c0.176-1.087-0.006-2.078-0.513-2.79c-0.477-0.671-1.039-1.001-1.715-1.008C267.959,245.347,267.95,245.347,267.942,245.347z
								 M269.584,252.241h0.006H269.584z"/>
						</g>
						<path style="fill:#EBEBEC;" d="M254.603,269.57c2.096-1.361,3.92-3.111,5.542-5.003c1.853-2.16,3.54-4.485,5.007-6.924
							c0.733-1.219,1.4-2.473,2.021-3.752c0.451-0.93,0.907-1.856,1.296-2.814c0.562-1.382,1.16-3.124,0.924-4.685
							c0.08,0.089,0.158,0.184,0.234,0.29c0.575,0.808,0.692,1.87,0.534,2.849c-0.159,0.984-0.458,1.948-0.852,2.89
							c-1.202,2.875-3.287,5.545-4.988,7.975c-2.649,3.784-5.749,7.315-9.341,10.232c-0.536,0.436-1.144,0.875-1.835,0.87
							c-0.517-0.004-0.843-0.226-1.031-0.594C252.977,270.529,253.81,270.085,254.603,269.57z"/>
						<g>
							<g>
								<path style="fill:#B6B8BA;" d="M259.772,252.272c1.137-1.5,4.596-6.408,7.489-7.126c0.215,0.671,0.24,1.411,0.127,2.112
									c-0.168,1.039-0.483,2.056-0.899,3.05c-1.268,3.034-3.469,5.851-5.263,8.415c-2.795,3.993-6.067,7.719-9.856,10.797
									c-0.016,0.013-0.032,0.025-0.048,0.038c0.403-2.461,1.927-5.758,2.256-6.527
									C255.207,259.216,257.265,255.579,259.772,252.272z"/>
								<path style="fill:#9D9FA2;" d="M251.332,269.823c-0.047,0-0.093-0.01-0.132-0.033c-0.105-0.061-0.185-0.161-0.165-0.281
									c0.367-2.247,1.656-5.183,2.142-6.289l0.133-0.306c1.689-3.954,3.785-7.595,6.229-10.82l0.311-0.415
									c1.369-1.835,4.575-6.132,7.341-6.818c0.148-0.035,0.301,0.048,0.349,0.194c0.218,0.68,0.265,1.457,0.137,2.248
									c-0.163,1.01-0.464,2.029-0.918,3.116c-1.063,2.544-2.73,4.876-4.343,7.132c-0.324,0.453-0.643,0.899-0.95,1.338
									c-3.02,4.315-6.354,7.967-9.911,10.856C251.495,269.794,251.411,269.823,251.332,269.823z M267.059,245.51
									c-2.507,0.847-5.456,4.798-6.74,6.52l-0.314,0.418v0c-2.415,3.187-4.488,6.786-6.158,10.696l-0.136,0.312
									c-0.42,0.958-1.456,3.316-1.938,5.351c3.295-2.775,6.393-6.221,9.215-10.253c0.308-0.44,0.628-0.888,0.953-1.343
									c1.594-2.229,3.241-4.534,4.279-7.017c0.436-1.044,0.724-2.02,0.88-2.984C267.196,246.617,267.182,246.034,267.059,245.51z
									 M259.772,252.272h0.006H259.772z"/>
							</g>
						</g>
						<g>
							<g>
								<path style="fill:#EBEBEC;" d="M259.772,252.272c1.012-1.335,3.862-5.367,6.516-6.746c1.869,1.459,4.756,4.666,5.149,10.737
									c0.549,8.486-11.318,14.34-19.167,9.95c0.538-1.469,1.12-2.743,1.309-3.184
									C255.207,259.216,257.265,255.579,259.772,252.272z"/>
								<path style="fill:#9D9FA2;" d="M258.291,268.013c-2.187,0-4.316-0.51-6.164-1.544c-0.125-0.07-0.181-0.221-0.132-0.355
									c0.447-1.219,0.925-2.308,1.182-2.893l0.133-0.305c1.689-3.954,3.785-7.595,6.229-10.82l0,0l0.313-0.417
									c1.242-1.664,3.825-5.125,6.302-6.412c0.1-0.052,0.224-0.042,0.314,0.029c1.79,1.398,4.854,4.679,5.26,10.949
									c0.237,3.662-1.733,7.092-5.407,9.409C263.841,267.218,261.02,268.013,258.291,268.013z M252.631,266.078
									c3.893,2.055,9.234,1.697,13.379-0.918c3.486-2.199,5.358-5.435,5.135-8.877c-0.38-5.871-3.159-9.008-4.888-10.408
									c-2.31,1.293-4.75,4.563-5.937,6.154l-0.315,0.42c-2.415,3.187-4.488,6.786-6.158,10.696l-0.136,0.311
									C253.474,263.996,253.046,264.972,252.631,266.078z"/>
							</g>
						</g>
						<g>
							<path style="fill:#EBEBEC;" d="M267.07,249.191c0.331-0.163,0.641-0.156,0.925-0.053c1.084,0.895,1.655,2.501,1.778,3.855
								c0.057,0.625,0.029,1.291-0.225,1.874c-0.267,0.612-0.8,1.005-1.4,1.262c-0.625,0.268-1.461,0.459-2.106,0.15
								c-0.571-0.273-0.821-0.964-0.933-1.544c-0.246-1.276-0.007-2.779,0.565-3.942
								C265.982,250.165,266.425,249.508,267.07,249.191z"/>
						</g>
						<g>
							<path style="fill:#D5D5D7;" d="M253.578,263.03c1.629-3.814,3.687-7.451,6.194-10.758c1.012-1.335,3.862-5.367,6.516-6.746
								c0.657,0.513,1.44,1.248,2.196,2.242c-0.701-0.152-1.427-0.16-2.144,0.019c-1.227,0.306-2.295,1.078-3.164,1.974
								c-1.939,2.001-3.224,4.762-3.774,7.476c-0.261,1.288-0.411,2.733,0.044,3.994c0.517,1.433,1.767,2.308,3.215,2.645
								c1.549,0.36,3.182,0.286,4.673-0.277c0.769-0.29,1.487-0.695,2.145-1.182c-3.622,4.747-11.482,7-17.209,3.797
								C252.808,264.744,253.39,263.471,253.578,263.03z"/>
						</g>
					</g>
					<g>
						<g>
							<g>
								<g>
									<polygon style="fill:#EBEBEC;" points="284.17,285.932 284.169,285.931 284.173,285.93 									"/>
									<path style="fill:#9D9FA2;" d="M284.17,286.224c-0.031,0-0.062-0.005-0.091-0.015c-0.087-0.028-0.157-0.096-0.188-0.186
										c-0.039-0.119,0.001-0.251,0.102-0.326c0.014-0.011,0.03-0.02,0.046-0.028c0.13-0.066,0.29-0.029,0.374,0.095
										c0.079,0.114,0.064,0.266-0.027,0.364c-0.009,0.01-0.019,0.019-0.029,0.028
										C284.304,286.201,284.237,286.224,284.17,286.224z"/>
								</g>
								<g>
									<path style="fill:#EBEBEC;" d="M284.17,285.932C284.207,285.95,284.113,285.969,284.17,285.932L284.17,285.932z"/>
									<path style="fill:#9D9FA2;" d="M284.158,286.246c-0.126,0-0.245-0.083-0.285-0.204c-0.041-0.126,0.027-0.283,0.138-0.355
										c0.087-0.056,0.198-0.063,0.29-0.016c0.119,0.059,0.19,0.201,0.164,0.331c-0.027,0.13-0.158,0.236-0.29,0.244
										C284.169,286.246,284.164,286.246,284.158,286.246z M284.178,285.944l0.152,0.233L284.178,285.944z"/>
								</g>
								<g>
									<path style="fill:#EBEBEC;" d="M283.882,291.593c0.659,0.331,1.655,0.678,2.321,0.173c0.477-0.361,0.501-1.007,0.46-1.552
										c-0.043-0.568-0.192-1.122-0.349-1.668c-0.57-1.984-1.712-4.523-4.056-4.825c-0.873-0.113-1.374,0.334-1.632,0.988
										C279.595,287.316,281.585,290.439,283.882,291.593z"/>
									<path style="fill:#9D9FA2;" d="M285.377,292.312c-0.471,0-1.019-0.153-1.626-0.458c-2.472-1.241-4.474-4.524-3.396-7.253
										c0.344-0.872,1.033-1.289,1.942-1.17c1.966,0.254,3.413,1.947,4.299,5.035c0.157,0.546,0.314,1.128,0.36,1.726
										c0.042,0.557,0.028,1.35-0.574,1.807C286.104,292.207,285.767,292.312,285.377,292.312z M282,283.995
										c-0.523,0-0.885,0.27-1.102,0.82c-0.935,2.366,0.874,5.391,3.116,6.517l0,0c0.512,0.258,1.454,0.625,2.014,0.201
										c0.289-0.22,0.396-0.62,0.344-1.298c-0.041-0.543-0.19-1.092-0.338-1.609c-0.816-2.842-2.098-4.395-3.812-4.616
										C282.145,284,282.071,283.995,282,283.995z"/>
								</g>
							</g>
							<g>
								<g>
									<path style="fill:#EBEBEC;" d="M287.465,289.552c0.601,1.064,1.94,3.124,3.41,2.435c0.655-0.307,0.699-1.11,0.6-1.735
										c-0.228-1.438-0.934-2.809-1.611-4.081c-0.357-0.671-0.827-1.287-1.411-1.776c-0.681-0.57-1.521-0.708-2.065,0.09
										c-0.067,0.098-0.122,0.199-0.167,0.304C285.596,286.238,286.766,288.313,287.465,289.552z"/>
									<path style="fill:#9D9FA2;" d="M290.274,292.417c-0.809,0-1.865-0.6-3.063-2.722l0,0c-0.725-1.286-1.94-3.439-1.259-5.023
										c0.052-0.122,0.116-0.239,0.194-0.353c0.262-0.385,0.612-0.617,1.013-0.673c0.475-0.065,1,0.121,1.481,0.523
										c0.586,0.49,1.084,1.117,1.481,1.863c0.589,1.107,1.396,2.623,1.642,4.172c0.16,1.012-0.111,1.739-0.764,2.046
										C290.787,292.35,290.544,292.417,290.274,292.417z M287.719,289.408c0.761,1.348,1.904,2.842,3.032,2.314
										c0.535-0.251,0.502-1.001,0.435-1.425c-0.213-1.343-0.842-2.602-1.581-3.99c-0.362-0.679-0.813-1.247-1.341-1.69
										c-0.354-0.296-0.719-0.437-1.026-0.393c-0.236,0.033-0.441,0.175-0.61,0.423c-0.056,0.082-0.102,0.167-0.14,0.255
										C285.921,286.221,287.047,288.216,287.719,289.408L287.719,289.408z"/>
								</g>
							</g>
							<g>
								<g>
									<path style="fill:#EBEBEC;" d="M288.185,283.692c0.105,0.343,0.298,0.651,0.499,0.948c1.04,1.535,2.155,3.312,4.008,3.945
										c0.278,0.095,0.645,0.145,0.87-0.089c0.224-0.232,0.17-0.59,0.099-0.872c-0.16-0.635-0.52-1.235-0.852-1.794
										c-0.271-0.456-0.556-0.907-0.867-1.337c-0.496-0.687-0.971-1.39-1.609-1.957c-0.308-0.274-0.682-0.508-1.09-0.594
										c-0.404-0.085-0.692,0.086-0.875,0.366C288.109,282.704,288.048,283.244,288.185,283.692z"/>
									<path style="fill:#9D9FA2;" d="M293.117,288.956c-0.16,0-0.335-0.031-0.521-0.095c-1.843-0.629-2.979-2.314-3.982-3.801
										l-0.173-0.256c-0.197-0.291-0.416-0.634-0.537-1.026c0,0,0,0,0-0.001c-0.166-0.545-0.082-1.169,0.218-1.629
										c0.27-0.414,0.703-0.592,1.18-0.492c0.417,0.089,0.829,0.311,1.224,0.662c0.592,0.527,1.048,1.164,1.49,1.78l0.161,0.225
										c0.284,0.393,0.564,0.825,0.881,1.358c0.345,0.582,0.716,1.207,0.883,1.872c0.053,0.21,0.194,0.767-0.172,1.146
										C293.607,288.869,293.383,288.956,293.117,288.956z M288.464,283.607c0.096,0.315,0.289,0.614,0.461,0.869l0.174,0.257
										c0.998,1.479,2.029,3.009,3.687,3.575c0.124,0.042,0.429,0.126,0.565-0.015c0.096-0.099,0.104-0.289,0.027-0.598
										c-0.147-0.583-0.48-1.144-0.802-1.687c-0.326-0.548-0.597-0.966-0.87-1.344l-0.163-0.227
										c-0.443-0.617-0.86-1.201-1.403-1.684c-0.314-0.278-0.645-0.461-0.957-0.527c-0.247-0.051-0.429,0.023-0.57,0.24
										C288.407,282.781,288.349,283.229,288.464,283.607L288.464,283.607z"/>
								</g>
							</g>
							<g>
								<path style="fill:#EBEBEC;" d="M265.983,259.519c2.365-2.047,5.918-4.058,8.838-3.018c1.418,0.505,2.665,2.015,3.641,3.086
									c3.587,3.934,6.535,8.56,8.996,13.265c2.106,4.026,4.454,8.831,4.31,13.498c-0.225,7.268-16.488-2.263-18.749-3.592
									c-2.762-1.624-5.458-3.374-8.031-5.283c-2.56-1.899-5.985-3.785-5.554-7.453c0.421-3.58,3.046-6.997,5.485-9.502
									C265.236,260.194,265.594,259.856,265.983,259.519z"/>
								<path style="fill:#9D9FA2;" d="M288.668,289.339c-4.484,0.001-12.269-4.255-15.797-6.329
									c-2.962-1.742-5.597-3.475-8.057-5.3c-0.311-0.231-0.635-0.462-0.964-0.695c-2.393-1.704-5.105-3.634-4.706-7.026
									c0.351-2.985,2.223-6.239,5.566-9.671c0.334-0.343,0.699-0.686,1.083-1.018c1.214-1.051,5.461-4.379,9.127-3.072
									c1.341,0.478,2.509,1.777,3.448,2.82l0.31,0.344c3.264,3.58,6.221,7.939,9.039,13.326c2.177,4.161,4.486,8.99,4.343,13.642
									c-0.038,1.21-0.498,2.068-1.368,2.548C290.147,289.207,289.459,289.339,288.668,289.339z M273.117,256.509
									c-2.945,0-5.968,2.388-6.942,3.231c-0.371,0.321-0.723,0.652-1.046,0.984c-3.25,3.338-5.069,6.478-5.405,9.332
									c-0.359,3.048,2.094,4.794,4.465,6.482c0.331,0.236,0.659,0.469,0.973,0.702c2.443,1.812,5.061,3.535,8.006,5.266
									c8.461,4.976,14.907,7.179,17.242,5.889c0.686-0.379,1.035-1.051,1.066-2.054c0.14-4.512-2.036-9.07-4.276-13.353
									c-2.795-5.342-5.723-9.661-8.953-13.204l-0.313-0.346c-0.895-0.995-2.008-2.233-3.21-2.661
									C274.199,256.59,273.659,256.509,273.117,256.509z M265.983,259.519h0.006H265.983z"/>
							</g>
							<path style="fill:#D5D5D7;" d="M259.434,270.022c0.421-3.58,3.046-6.997,5.485-9.502c0.317-0.326,0.674-0.664,1.064-1.001
								c2.365-2.047,5.918-4.058,8.838-3.018c0.052,0.019,0.103,0.048,0.155,0.069c-1.036-0.111-2.082-0.09-3.099,0.167
								c-1.933,0.488-3.564,1.823-4.666,3.457c-1.182,1.753-1.8,3.942-1.537,6.054c0.266,2.138,1.448,4.04,2.76,5.699
								c1.355,1.714,2.91,3.287,4.429,4.855c1.745,1.8,3.561,3.533,5.486,5.14c2.837,2.367,5.943,4.504,9.338,5.99
								c0.755,0.331,1.578,0.65,2.429,0.907c-4.233,1.462-15.266-5.004-17.099-6.081c-2.762-1.624-5.457-3.374-8.031-5.283
								C262.428,275.575,259.002,273.69,259.434,270.022z"/>
							<path style="fill:#D5D5D7;" d="M259.434,270.022c0.31-2.637,1.817-5.185,3.564-7.345c-0.376,0.787-0.673,1.611-0.881,2.463
								c-0.386,1.583-0.496,3.305-0.021,4.882c0.447,1.48,1.324,2.799,2.335,3.953c2.154,2.458,4.922,4.258,7.472,6.265
								c2.765,2.177,5.497,4.413,8.431,6.359c-3.384-1.536-6.429-3.32-7.316-3.842c-2.762-1.624-5.457-3.374-8.031-5.283
								C262.428,275.575,259.002,273.69,259.434,270.022z"/>
						</g>
						<path style="fill:#D5D5D7;" d="M271.626,256.364c0.285-0.02,0.572-0.018,0.858-0.006c3.7,3.759,12.868,14.268,18.763,31.283
							c-0.021,0.024-0.042,0.048-0.06,0.069c-0.141,0.163-0.273,0.333-0.413,0.497c-0.066,0.077-0.137,0.147-0.212,0.211
							c-6.182-18.175-16.164-28.94-19.312-32.017C271.376,256.385,271.502,256.373,271.626,256.364z"/>
						<path style="fill:#FFFFFF;" d="M272.406,257.633c0,0,8.943,8.394,15.239,23.383
							C287.645,281.015,279.601,264.628,272.406,257.633z"/>
					</g>
				</g>
			</g>
		</g>
		<g>
			<g>
				<g>
					<path style="fill:#EBEBEC;" d="M204.165,73.625c-65.029,0-117.746,48.206-117.746,107.672c0,2.848,0.121,5.67,0.359,8.462
						c1.973,23.167,15.902,43.561,36.501,54.345c22.858,11.967,50.762,18.999,80.886,18.999c30.125,0,58.029-7.033,80.887-19
						c20.598-10.784,34.528-31.178,36.501-54.345c0.238-2.792,0.359-5.614,0.359-8.462
						C321.911,121.832,269.194,73.625,204.165,73.625z"/>
					<path style="fill:#9D9FA2;" d="M204.165,263.396c-29.221,0-57.238-6.581-81.022-19.033
						c-20.978-10.982-34.681-31.386-36.656-54.579c-0.239-2.803-0.36-5.658-0.36-8.487c0-59.531,52.952-107.964,118.038-107.964
						c65.086,0,118.039,48.432,118.039,107.964c0,2.824-0.121,5.68-0.36,8.487c-1.975,23.193-15.678,43.596-36.657,54.578
						C261.403,256.814,233.386,263.396,204.165,263.396z M204.165,73.918c-64.764,0-117.454,48.17-117.454,107.38
						c0,2.813,0.12,5.651,0.358,8.437c1.958,22.993,15.545,43.222,36.345,54.111c23.7,12.407,51.623,18.966,80.751,18.966
						c29.128,0,57.051-6.559,80.751-18.966c20.8-10.89,34.387-31.118,36.345-54.111c0.238-2.791,0.358-5.63,0.358-8.438
						C321.619,122.088,268.929,73.918,204.165,73.918z"/>
				</g>
			</g>
			<g>
				<g>
					<path style="fill:#EBEBEC;" d="M204.165,73.625c-65.029,0-117.746,48.206-117.746,107.672c0,2.848,0.121,5.67,0.359,8.462
						c1.973,23.167,15.902,43.561,36.501,54.345c22.858,11.967,50.762,18.999,80.886,18.999c30.125,0,58.029-7.033,80.887-19
						c20.598-10.784,34.528-31.178,36.501-54.345c0.238-2.792,0.359-5.614,0.359-8.462
						C321.911,121.832,269.194,73.625,204.165,73.625z"/>
					<path style="fill:#9D9FA2;" d="M204.165,263.396c-29.221,0-57.238-6.581-81.022-19.033
						c-20.978-10.982-34.681-31.386-36.656-54.579c-0.239-2.803-0.36-5.658-0.36-8.487c0-59.531,52.952-107.964,118.038-107.964
						c65.086,0,118.039,48.432,118.039,107.964c0,2.824-0.121,5.68-0.36,8.487c-1.975,23.193-15.678,43.596-36.657,54.578
						C261.403,256.814,233.386,263.396,204.165,263.396z M204.165,73.918c-64.764,0-117.454,48.17-117.454,107.38
						c0,2.813,0.12,5.651,0.358,8.437c1.958,22.993,15.545,43.222,36.345,54.111c23.7,12.407,51.623,18.966,80.751,18.966
						c29.128,0,57.051-6.559,80.751-18.966c20.8-10.89,34.387-31.118,36.345-54.111c0.238-2.791,0.358-5.63,0.358-8.438
						C321.619,122.088,268.929,73.918,204.165,73.918z"/>
				</g>
			</g>
			<g>
				<path style="fill:#EBEBEC;" d="M249.268,94.888c-7.397-7.489-20.216-10.013-29.995-11.867
					c-28.167-5.34-56.555,2.373-79.324,19.38c-8.676,6.481-18.207,14.621-23.911,23.961c-0.667,1.092-2.408,3.749-1.441,5.082
					c1.015,1.4,3.715,0.161,4.84-0.409c12.658-6.417,24.328-14.013,37.785-18.776c14.158-5.011,29.12-7.803,44.121-8.403
					c3.736-0.149,7.477-0.161,11.214-0.033c11.115,0.38,22.357,1.257,33.412-0.41c1.659-0.25,3.403-0.603,4.649-1.727
					C253.146,99.403,251.09,96.733,249.268,94.888z"/>
			</g>
			<path style="fill:#D5D5D7;" d="M204.165,73.625c-65.029,0-117.746,48.206-117.746,107.672c0,2.848,0.121,5.67,0.359,8.462
				c1.973,23.167,15.902,43.561,36.501,54.345c22.858,11.967,50.762,18.999,80.886,18.999c30.125,0,58.029-7.033,80.886-19
				c20.599-10.784,34.528-31.178,36.501-54.345c0.238-2.792,0.359-5.614,0.359-8.462C321.911,121.832,269.194,73.625,204.165,73.625
				z M309.275,178.928c-1.766,20.329-14.239,38.224-32.683,47.687c-20.467,10.501-45.453,16.672-72.427,16.672
				c-26.974,0-51.959-6.171-72.427-16.672c-18.444-9.463-30.917-27.359-32.683-47.687c-0.213-2.45-0.321-4.926-0.321-7.425
				c0-52.181,47.203-94.481,105.431-94.481s105.432,42.301,105.432,94.481C309.596,174.001,309.488,176.477,309.275,178.928z"/>
			<g>
				<g>
					<path style="opacity:0.58;fill:#5D6163;" d="M274.865,95.501c-19.655,13.662-44.158,21.785-70.701,21.785
						c-26.594,0-51.139-8.155-70.813-21.864c-0.458,0.264-0.913,0.532-1.36,0.813c19.998,14.1,45.032,22.5,72.173,22.5
						c26.951,0,51.824-8.283,71.752-22.204C275.589,96.168,275.25,95.8,274.865,95.501z"/>
				</g>
			</g>
			<g>
				<path style="fill:#575A63;" d="M287.952,136.329c-12.03-11.429-76.022-11.562-83.787-11.535
					c-7.766-0.026-71.757,0.106-83.787,11.535c-12.812,12.172-19.539,46.445-17.297,62.14c1.416,9.915,48.59,13.438,83.147,14.689
					c6.569,0.238,12.681,0.05,17.937,0.152c5.256-0.102,11.368,0.086,17.937-0.152c34.557-1.251,81.731-4.774,83.147-14.689
					C307.491,182.774,300.764,148.501,287.952,136.329z"/>
				<path style="fill:#989AA8;" d="M286.329,137.611c-11.797-11.001-74.55-11.128-82.165-11.103
					c-7.615-0.025-70.367,0.102-82.165,11.103c-12.564,11.716-19.16,44.705-16.962,59.812c1.389,9.543,47.649,12.935,81.537,14.139
					c6.441,0.229,12.435,0.048,17.59,0.146c5.154-0.098,11.148,0.082,17.59-0.146c33.888-1.204,80.148-4.596,81.537-14.139
					C305.49,182.316,298.894,149.327,286.329,137.611z"/>
				<path style="fill:#D6ECF9;" d="M284.368,138.939c-11.54-10.835-72.924-10.961-80.373-10.936
					c-7.449-0.025-68.833,0.101-80.373,10.936c-12.29,11.54-18.743,44.033-16.592,58.913c1.359,9.4,46.61,12.74,79.758,13.926
					c6.301,0.225,12.164,0.048,17.206,0.144c5.042-0.097,10.905,0.081,17.206-0.144c33.148-1.186,78.4-4.526,79.758-13.926
					C303.111,182.972,296.659,150.479,284.368,138.939z"/>
				<path style="fill:#5D6163;" d="M283.197,139.38c-11.348-10.532-71.707-10.654-79.032-10.63
					c-7.325-0.024-67.684,0.098-79.032,10.63c-12.085,11.217-18.43,42.8-16.315,57.264c1.336,9.137,45.832,12.384,78.428,13.536
					c6.196,0.219,11.961,0.046,16.919,0.14c4.958-0.094,10.723,0.079,16.919-0.14c32.596-1.153,77.092-4.4,78.428-13.536
					C301.626,182.181,295.282,150.597,283.197,139.38z"/>
				<path style="fill:#5D6163;" d="M137.855,173.327c14.9,5.721,30.877,8.355,46.755,9.323c16.356,0.997,32.956,0.358,49.189-1.871
					c9.796-1.345,19.523-3.375,28.932-6.435c9.293-3.023,18.556-7.044,26.571-12.701c1.603-1.132,3.194-2.285,4.769-3.46
					c-2.757-7.78-6.425-14.674-10.875-18.803c-11.348-10.532-71.707-10.654-79.032-10.63c-7.325-0.024-67.684,0.098-79.032,10.63
					c-4.75,4.408-8.608,11.967-11.419,20.392C120.944,165.525,129.205,170.006,137.855,173.327z"/>
				
					<linearGradient id="SVGID_00000150799306830146809820000006412891224772893356_" gradientUnits="userSpaceOnUse" x1="204.1646" y1="136.8852" x2="204.1646" y2="189.0825">
					<stop  offset="0" style="stop-color:#133564"/>
					<stop  offset="0.5054" style="stop-color:#072B4D"/>
					<stop  offset="1" style="stop-color:#0A0831"/>
				</linearGradient>
				<path style="fill:url(#SVGID_00000150799306830146809820000006412891224772893356_);" d="M283.197,139.38
					c-11.348-10.532-71.707-10.654-79.032-10.63c-7.325-0.024-67.684,0.098-79.032,10.63c-12.085,11.217-18.43,42.8-16.315,57.264
					c1.336,9.137,45.832,12.384,78.428,13.536c6.196,0.219,11.961,0.046,16.919,0.14c4.958-0.094,10.723,0.079,16.919-0.14
					c32.596-1.153,77.092-4.4,78.428-13.536C301.626,182.181,295.282,150.597,283.197,139.38z M294.02,195.51
					c-1.259,8.61-43.193,11.671-73.911,12.757c-5.839,0.206-11.272,0.044-15.945,0.132c-4.672-0.089-10.106,0.074-15.945-0.132
					c-30.718-1.086-72.652-4.146-73.911-12.757c-1.993-13.63,3.986-43.395,15.375-53.966c10.694-9.925,67.577-10.041,74.48-10.018
					c6.903-0.023,63.786,0.092,74.48,10.018C290.034,152.115,296.013,181.879,294.02,195.51z"/>
			</g>
			<g>
				<g>
					<g>
						
							<ellipse transform="matrix(0.2298 -0.9732 0.9732 0.2298 -43.4593 286.5773)" style="fill:#EBEBEC;" cx="159.323" cy="170.745" rx="25.454" ry="25.454"/>
						<path style="fill:#9D9FA2;" d="M159.323,196.491c-14.196,0-25.746-11.549-25.746-25.746s11.55-25.746,25.746-25.746
							c14.196,0,25.746,11.549,25.746,25.746S173.52,196.491,159.323,196.491z M159.323,145.584
							c-13.874,0-25.162,11.288-25.162,25.162s11.287,25.162,25.162,25.162c13.874,0,25.162-11.288,25.162-25.162
							S173.198,145.584,159.323,145.584z"/>
					</g>
					<circle style="fill:#FFFFFF;" cx="159.323" cy="170.553" r="24.035"/>
					<g>
						<circle style="fill:#004770;" cx="159.323" cy="170.439" r="21.907"/>
						
							<ellipse transform="matrix(0.7071 -0.7071 0.7071 0.7071 -73.7513 162.5365)" style="fill:#006BA2;" cx="159.323" cy="170.294" rx="21.148" ry="21.148"/>
						
							<ellipse transform="matrix(0.3827 -0.9239 0.9239 0.3827 -59.0291 252.355)" style="fill:#0086B6;" cx="159.323" cy="170.349" rx="19.388" ry="19.388"/>
						<circle style="fill:#006591;" cx="159.323" cy="170.321" r="12.947"/>
						<g>
							<path style="fill:#3791A9;" d="M178.919,167.328c0,1.578-0.106,3.159-0.373,4.713c-1.574,9.158-9.954,16.392-19.223,16.392
								c-6.57,0-12.36-3.336-15.77-8.406c-1.586-2.101-2.681-4.563-3.354-7.1c-0.28-1.057-0.489-2.136-0.633-3.224
								c0,0.049-0.004,0.098-0.004,0.147c0,10.914,8.847,19.762,19.761,19.762c10.914,0,19.762-8.847,19.762-19.762
								C179.085,168.995,179.024,168.154,178.919,167.328z"/>
						</g>
						<path style="fill:#00A8CE;" d="M160.908,153.508c-1.637-1.11-3.93-1.332-5.89-0.865c-4.451,1.061-8.9,4.807-10.637,9.038
							c-1.112,2.71-1.646,7.206,1.669,8.613c3.572,1.516,8.781-0.859,11.576-3.044c3.138-2.453,6.399-6.834,5.234-11.029
							C162.528,155.019,161.82,154.126,160.908,153.508z"/>
						<g>
							<path style="fill:#00A8CE;" d="M149.431,174.653c-0.058-0.774-0.39-1.463-0.966-1.984c-0.93-0.842-2.368-0.93-3.474-0.397
								c-1.271,0.612-1.778,2.123-1.463,3.46c0.317,1.347,1.53,2.593,2.986,2.433C148.167,177.982,149.554,176.304,149.431,174.653z
								"/>
							<path style="fill:#8B194D;" d="M144.72,173.926c-0.003,0.011-0.006,0.021-0.009,0.032c0,0,0,0,0,0.001
								C144.716,173.939,144.719,173.927,144.72,173.926z"/>
							<path style="fill:#8B194D;" d="M144.813,173.685c-0.008,0.015-0.016,0.03-0.025,0.044c0,0.001-0.001,0.003-0.001,0.004
								C144.811,173.693,144.817,173.68,144.813,173.685z"/>
						</g>
					</g>
				</g>
				<g>
					<g>
						
							<ellipse transform="matrix(0.9239 -0.3827 0.3827 0.9239 -46.4113 108.165)" style="fill:#EBEBEC;" cx="248.686" cy="170.745" rx="25.454" ry="25.454"/>
						<path style="fill:#9D9FA2;" d="M248.686,196.491c-14.196,0-25.746-11.549-25.746-25.746s11.55-25.746,25.746-25.746
							c14.196,0,25.746,11.549,25.746,25.746S262.882,196.491,248.686,196.491z M248.686,145.584
							c-13.875,0-25.162,11.288-25.162,25.162s11.287,25.162,25.162,25.162c13.874,0,25.162-11.288,25.162-25.162
							S262.56,145.584,248.686,145.584z"/>
					</g>
					<circle style="fill:#FFFFFF;" cx="248.686" cy="170.553" r="24.035"/>
					<g>
						<circle style="fill:#004770;" cx="248.686" cy="170.439" r="21.907"/>
						
							<ellipse transform="matrix(0.2298 -0.9732 0.9732 0.2298 25.8108 373.2013)" style="fill:#006BA2;" cx="248.686" cy="170.294" rx="21.148" ry="21.148"/>
						
							<ellipse transform="matrix(0.9239 -0.3827 0.3827 0.9239 -46.2597 108.1348)" style="fill:#0086B6;" cx="248.686" cy="170.349" rx="19.388" ry="19.388"/>
						<circle style="fill:#006591;" cx="248.686" cy="170.321" r="12.948"/>
						<g>
							<path style="fill:#3791A9;" d="M268.281,167.328c0,1.578-0.106,3.159-0.373,4.713c-1.574,9.158-9.954,16.392-19.223,16.392
								c-6.57,0-12.36-3.336-15.77-8.406c-1.586-2.101-2.681-4.563-3.354-7.1c-0.28-1.057-0.489-2.136-0.633-3.224
								c0,0.049-0.004,0.098-0.004,0.147c0,10.914,8.848,19.762,19.762,19.762c10.914,0,19.762-8.847,19.762-19.762
								C268.447,168.995,268.387,168.154,268.281,167.328z"/>
						</g>
						<path style="fill:#00A8CE;" d="M250.271,153.508c-1.637-1.11-3.93-1.332-5.89-0.865c-4.451,1.061-8.9,4.807-10.637,9.038
							c-1.112,2.71-1.646,7.206,1.669,8.613c3.572,1.516,8.781-0.859,11.576-3.044c3.138-2.453,6.399-6.834,5.234-11.029
							C251.89,155.019,251.182,154.126,250.271,153.508z"/>
						<g>
							<path style="fill:#00A8CE;" d="M238.793,174.653c-0.058-0.774-0.39-1.463-0.966-1.984c-0.93-0.842-2.368-0.93-3.474-0.397
								c-1.271,0.612-1.778,2.123-1.463,3.46c0.317,1.347,1.53,2.593,2.986,2.433C237.529,177.982,238.917,176.304,238.793,174.653z
								"/>
							<path style="fill:#8B194D;" d="M234.082,173.926c-0.003,0.011-0.006,0.021-0.009,0.032c0,0,0,0,0,0.001
								C234.078,173.939,234.082,173.927,234.082,173.926z"/>
							<path style="fill:#8B194D;" d="M234.175,173.685c-0.008,0.015-0.016,0.03-0.025,0.044c0,0.001-0.001,0.003-0.001,0.004
								C234.174,173.693,234.18,173.68,234.175,173.685z"/>
						</g>
					</g>
				</g>
			</g>
			<g>
				<path style="fill:#006591;" d="M196.44,241.6c-3.025,0-5.029-0.35-5.096-0.362c-0.983-0.181-1.633-1.126-1.451-2.109
					c0.18-0.982,1.123-1.633,2.106-1.452l0,0c0.05,0.009,5.041,0.891,10.938-0.26c7.7-1.502,13.28-5.614,16.584-12.222
					c0.448-0.894,1.533-1.257,2.429-0.809c0.894,0.447,1.256,1.534,0.81,2.428C216.336,239.661,203.561,241.6,196.44,241.6z"/>
			</g>
			<g>
				<g>
					<g>
						<path style="fill:#EBEBEC;" d="M93.594,149.26c3.814-10.616,10.012-18.107,13.842-16.73c3.83,1.376,3.844,11.098,0.029,21.714
							s-10.012,18.107-13.842,16.73C89.793,169.598,89.78,159.876,93.594,149.26z"/>
						<path style="fill:#9D9FA2;" d="M94.587,171.431c-0.368,0-0.723-0.059-1.062-0.181c-4.043-1.453-4.133-11.155-0.205-22.088l0,0
							c3.929-10.933,10.178-18.357,14.215-16.907c4.043,1.453,4.134,11.155,0.206,22.088
							C104.142,164.358,98.6,171.431,94.587,171.431z M93.869,149.359c-3.69,10.271-3.757,20.043-0.147,21.341
							c3.608,1.301,9.778-6.283,13.469-16.554c3.69-10.271,3.757-20.043,0.146-21.341
							C103.668,131.488,97.623,138.912,93.869,149.359L93.869,149.359z"/>
					</g>
					<path style="fill:#0086B6;" d="M94.029,149.52c3.342-9.303,8.773-15.866,12.129-14.66c3.356,1.206,3.368,9.725,0.026,19.027
						c-3.342,9.303-8.773,15.866-12.129,14.66C90.698,167.341,90.687,158.822,94.029,149.52z"/>
					<path style="fill:#0086B6;" d="M94.616,149.73c2.952-8.216,7.748-14.013,10.713-12.948c2.965,1.065,2.975,8.589,0.023,16.805
						c-2.952,8.216-7.748,14.013-10.713,12.948C91.674,165.47,91.664,157.946,94.616,149.73z"/>
					<path style="fill:#00A8CE;" d="M94.197,149.065c-0.056,0.151-0.113,0.302-0.168,0.455c-0.033,0.092-0.064,0.183-0.096,0.275
						l4.619,1.659l-5.774,2.084c-0.081,0.305-0.158,0.608-0.23,0.908l5.369-1.938l-6.117,5.86c-0.056,0.411-0.103,0.815-0.141,1.21
						l6.001-5.749l-6.044,10c0.043,0.426,0.102,0.829,0.177,1.207l6.146-10.169l-4.729,13.162c0.203,0.186,0.427,0.33,0.667,0.439
						l5.15-14.333l-0.45,12.672c0.267-0.246,0.535-0.514,0.805-0.803l0.463-13.052l3.742,6.875c0.144-0.274,0.287-0.553,0.428-0.836
						l-3.771-6.929l5.841,2.098c0.034-0.091,0.068-0.181,0.101-0.273c0.055-0.153,0.107-0.305,0.16-0.458l-5.435-1.953l6.667-2.154
						c0.074-0.297,0.145-0.592,0.212-0.884l-6.687,2.16l7.453-6.762c0.037-0.384,0.069-0.762,0.089-1.129l-7.419,6.731l7.064-11.638
						c-0.091-0.348-0.199-0.669-0.322-0.965l-6.679,11.003l4.683-13.034c-0.255-0.068-0.519-0.099-0.794-0.085l-5.314,14.791
						l-0.175-10.763c-0.254,0.325-0.507,0.669-0.759,1.028l0.167,10.219l-3.009-5.353c-0.138,0.281-0.274,0.568-0.408,0.857
						l2.885,5.133L94.197,149.065z"/>
					<g>
						<path style="fill:#EBEBEC;" d="M94.837,149.81c2.708-7.538,7.109-12.857,9.828-11.879c2.72,0.977,2.729,7.88,0.021,15.418
							c-2.708,7.538-7.109,12.856-9.828,11.879C92.138,164.251,92.129,157.348,94.837,149.81z"/>
						<path style="fill:#9D9FA2;" d="M95.532,165.635c-0.268,0-0.526-0.043-0.773-0.132c-1.439-0.517-2.235-2.479-2.239-5.523
							c-0.004-2.945,0.721-6.592,2.043-10.269c1.321-3.677,3.082-6.951,4.96-9.22c1.941-2.346,3.805-3.351,5.242-2.835
							c1.44,0.517,2.235,2.479,2.239,5.523c0.004,2.945-0.721,6.592-2.042,10.268C102.394,160.593,98.422,165.634,95.532,165.635z
							 M103.991,138.109c-1.115,0-2.541,0.968-4.019,2.755c-1.835,2.218-3.561,5.431-4.86,9.045l0,0
							c-1.299,3.615-2.012,7.191-2.008,10.071c0.004,2.739,0.679,4.552,1.853,4.974c2.52,0.908,6.851-4.454,9.455-11.703
							c1.299-3.615,2.012-7.191,2.008-10.07c-0.003-2.739-0.679-4.553-1.853-4.974C104.386,138.141,104.194,138.109,103.991,138.109
							z M94.837,149.81h0.006H94.837z"/>
					</g>
					<path style="fill:#D5D5D7;" d="M95.321,149.984c2.224-6.189,5.771-10.58,7.924-9.807c2.152,0.773,2.094,6.418-0.129,12.607
						c-2.224,6.189-5.771,10.58-7.924,9.807C93.04,161.818,93.098,156.173,95.321,149.984z"/>
					<path style="fill:#3273A8;" d="M96.614,150.448c1.351-3.761,3.507-6.429,4.815-5.959c1.308,0.47,1.273,3.9-0.079,7.66
						c-1.351,3.761-3.507,6.429-4.815,5.959C95.227,157.639,95.262,154.209,96.614,150.448z"/>
					<g>
						<path style="fill:#D5D5D7;" d="M96.535,158.109c0.195,0.07,0.409,0.069,0.636,0.006c-0.773-1.101-0.577-4.06,0.573-7.26
							c1.15-3.2,2.882-5.608,4.179-5.965c-0.135-0.193-0.3-0.33-0.495-0.4c-1.308-0.47-3.464,2.198-4.815,5.959
							C95.262,154.209,95.227,157.639,96.535,158.109z"/>
					</g>
				</g>
			</g>
			<g>
				<g>
					<g>
						<path style="fill:#EBEBEC;" d="M315.017,149.26c-3.814-10.616-10.012-18.107-13.842-16.73
							c-3.831,1.376-3.844,11.098-0.029,21.714s10.012,18.107,13.842,16.73C318.818,169.598,318.831,159.876,315.017,149.26z"/>
						<path style="fill:#9D9FA2;" d="M314.031,171.429c-1.799,0-3.954-1.428-6.195-4.137c-2.636-3.186-5.109-7.785-6.965-12.95
							c-1.856-5.165-2.875-10.287-2.869-14.421c0.006-4.234,1.097-6.956,3.075-7.667c1.974-0.709,4.551,0.694,7.251,3.957
							c2.636,3.185,5.109,7.785,6.965,12.95c1.856,5.165,2.875,10.287,2.869,14.421c-0.006,4.233-1.097,6.956-3.075,7.667
							C314.751,171.37,314.398,171.429,314.031,171.429z M302.119,132.662c-0.298,0-0.58,0.047-0.846,0.143
							c-1.703,0.612-2.683,3.206-2.688,7.118c-0.006,4.068,1.002,9.119,2.835,14.223c1.833,5.104,4.271,9.64,6.865,12.775
							c2.494,3.014,4.903,4.393,6.604,3.779c1.703-0.612,2.683-3.206,2.688-7.118c0.006-4.069-1.002-9.12-2.835-14.223l0,0
							c-1.833-5.104-4.271-9.641-6.865-12.775C305.772,134.04,303.729,132.662,302.119,132.662z"/>
					</g>
					<path style="fill:#0086B6;" d="M314.582,149.52c-3.342-9.303-8.773-15.866-12.129-14.66c-3.357,1.206-3.368,9.725-0.026,19.027
						c3.342,9.303,8.773,15.866,12.129,14.66C317.913,167.341,317.924,158.822,314.582,149.52z"/>
					<path style="fill:#0086B6;" d="M313.995,149.73c-2.952-8.216-7.748-14.013-10.713-12.948
						c-2.964,1.065-2.975,8.589-0.023,16.805c2.952,8.216,7.748,14.013,10.713,12.948
						C316.937,165.47,316.947,157.946,313.995,149.73z"/>
					<path style="fill:#00A8CE;" d="M314.414,149.065c0.056,0.151,0.113,0.302,0.168,0.455c0.033,0.092,0.064,0.183,0.096,0.275
						l-4.619,1.659l5.774,2.084c0.08,0.305,0.158,0.608,0.23,0.908l-5.369-1.938l6.117,5.86c0.056,0.411,0.103,0.815,0.141,1.21
						l-6.001-5.749l6.044,10c-0.043,0.426-0.102,0.829-0.177,1.207l-6.146-10.169l4.729,13.162c-0.203,0.186-0.427,0.33-0.667,0.439
						l-5.15-14.333l0.45,12.672c-0.267-0.246-0.535-0.514-0.805-0.803l-0.463-13.052l-3.742,6.875
						c-0.144-0.274-0.287-0.553-0.428-0.836l3.772-6.929l-5.841,2.098c-0.033-0.091-0.068-0.181-0.101-0.273
						c-0.055-0.153-0.107-0.305-0.16-0.458l5.435-1.953l-6.667-2.154c-0.074-0.297-0.145-0.592-0.212-0.884l6.687,2.16l-7.453-6.762
						c-0.037-0.384-0.068-0.762-0.089-1.129l7.419,6.731l-7.064-11.638c0.091-0.348,0.199-0.669,0.322-0.965l6.679,11.003
						l-4.683-13.034c0.255-0.068,0.519-0.099,0.794-0.085l5.314,14.791l0.175-10.763c0.254,0.325,0.507,0.669,0.759,1.028
						l-0.167,10.219l3.009-5.353c0.138,0.281,0.274,0.568,0.408,0.857l-2.885,5.133L314.414,149.065z"/>
					<g>
						<path style="fill:#EBEBEC;" d="M313.774,149.81c-2.708-7.538-7.109-12.857-9.828-11.879c-2.72,0.977-2.729,7.88-0.021,15.418
							c2.708,7.538,7.109,12.856,9.828,11.879C316.473,164.251,316.483,157.348,313.774,149.81z"/>
						<path style="fill:#9D9FA2;" d="M313.076,165.635c-1.304,0-2.858-1.024-4.466-2.968c-1.878-2.269-3.639-5.544-4.96-9.22
							c-1.321-3.677-2.046-7.323-2.043-10.268c0.004-3.044,0.8-5.006,2.239-5.523c1.443-0.518,3.302,0.49,5.242,2.835
							c1.878,2.269,3.639,5.543,4.96,9.22l0,0c1.321,3.677,2.047,7.323,2.043,10.268c-0.004,3.045-0.799,5.006-2.239,5.523
							C313.605,165.591,313.346,165.635,313.076,165.635z M304.62,138.109c-0.203,0-0.395,0.032-0.576,0.097
							c-1.174,0.421-1.849,2.235-1.853,4.974c-0.004,2.879,0.71,6.456,2.008,10.07c1.299,3.615,3.025,6.827,4.86,9.046
							c1.746,2.111,3.417,3.081,4.595,2.658c1.174-0.422,1.849-2.235,1.853-4.974c0.004-2.879-0.71-6.456-2.008-10.071l0,0
							c-1.299-3.615-3.025-6.827-4.86-9.045C307.161,139.077,305.735,138.109,304.62,138.109z"/>
					</g>
					<path style="fill:#D5D5D7;" d="M313.29,149.984c-2.224-6.189-5.771-10.58-7.924-9.807c-2.152,0.773-2.095,6.418,0.129,12.607
						c2.224,6.189,5.771,10.58,7.924,9.807C315.571,161.818,315.513,156.173,313.29,149.984z"/>
					<path style="fill:#3273A8;" d="M311.997,150.448c-1.351-3.761-3.507-6.429-4.815-5.959c-1.308,0.47-1.273,3.9,0.079,7.66
						c1.351,3.761,3.507,6.429,4.815,5.959C313.384,157.639,313.349,154.209,311.997,150.448z"/>
					<g>
						<path style="fill:#D5D5D7;" d="M312.076,158.109c-0.195,0.07-0.409,0.069-0.636,0.006c0.773-1.101,0.577-4.06-0.573-7.26
							c-1.15-3.2-2.882-5.608-4.179-5.965c0.135-0.193,0.3-0.33,0.495-0.4c1.308-0.47,3.464,2.198,4.815,5.959
							C313.349,154.209,313.384,157.639,312.076,158.109z"/>
					</g>
				</g>
			</g>
		</g>
	</g>
	<g>
		<g>
			<path style="fill:#CCECFC;" d="M38.751,63.907c-0.62-0.314-0.943-2.387-1.288-4.221c-0.077-0.412-0.358-2.924-0.415-3.282
				c-0.057,0.358-0.316,3.019-0.394,3.431c-0.345,1.833-0.689,3.757-1.309,4.072c-1.442,0.732-6.234,1.258-6.234,1.258
				s5.942-0.138,6.571,1.696c0.342,0.997,0.713,3.23,0.992,5.017c0.106,0.681,0.311,2.768,0.372,3.085
				c0.061-0.317,0.366-2.759,0.415-3.128c0.277-2.064,0.608-3.977,0.95-4.975c0.629-1.833,6.571-1.696,6.571-1.696
				S40.193,64.639,38.751,63.907z"/>
			<path style="fill:#F1A4C8;" d="M73.925,34.758c0,0.356-0.289,0.645-0.645,0.645c-0.356,0-0.645-0.289-0.645-0.645
				s0.289-0.645,0.645-0.645C73.636,34.114,73.925,34.402,73.925,34.758z"/>
			<circle style="fill:#00A7D2;" cx="37.218" cy="41.944" r="0.787"/>
			<circle style="fill:#00A7D2;" cx="59.878" cy="47.997" r="0.915"/>
			<path style="fill:#98CA3C;" d="M57.729,73.545c0,0.371-0.301,0.672-0.672,0.672c-0.371,0-0.672-0.301-0.672-0.672
				c0-0.371,0.301-0.672,0.672-0.672C57.428,72.873,57.729,73.174,57.729,73.545z"/>
		</g>
		<g>
			<path style="fill:#CCECFC;" d="M343.289,43.956c1.077,0.546,1.638,4.146,2.237,7.33c0.135,0.716,0.622,5.078,0.721,5.7
				c0.099-0.622,0.549-5.243,0.684-5.958c0.599-3.184,1.197-6.525,2.273-7.072c2.504-1.271,10.826-2.185,10.826-2.185
				s-10.32,0.239-11.413-2.945c-0.594-1.732-1.238-5.609-1.724-8.713c-0.185-1.182-0.54-4.807-0.647-5.358
				c-0.106,0.551-0.635,4.792-0.72,5.432c-0.48,3.584-1.055,6.907-1.65,8.639c-1.093,3.184-11.413,2.945-11.413,2.945
				S340.785,42.685,343.289,43.956z"/>
			<path style="fill:#F1A4C8;" d="M282.203,94.58c0-0.618,0.501-1.119,1.119-1.119c0.618,0,1.12,0.501,1.12,1.119
				c0,0.618-0.501,1.119-1.12,1.119C282.704,95.699,282.203,95.198,282.203,94.58z"/>
			<path style="fill:#00A7D2;" d="M344.585,82.1c0-0.754,0.612-1.366,1.366-1.366c0.755,0,1.366,0.612,1.366,1.366
				c0,0.754-0.612,1.366-1.366,1.366C345.197,83.466,344.585,82.855,344.585,82.1z"/>
			<path style="fill:#00A7D2;" d="M305.008,71.589c0-0.878,0.712-1.59,1.589-1.59c0.878,0,1.59,0.712,1.59,1.59
				s-0.712,1.589-1.59,1.589C305.72,73.178,305.008,72.466,305.008,71.589z"/>
			<path style="fill:#98CA3C;" d="M310.331,27.218c0-0.645,0.522-1.167,1.167-1.167c0.645,0,1.167,0.522,1.167,1.167
				c0,0.645-0.523,1.167-1.167,1.167C310.853,28.385,310.331,27.862,310.331,27.218z"/>
		</g>
		<path style="fill:#CCECFC;" d="M185.413,24.608c-0.591-0.3-0.899-2.276-1.228-4.024c-0.074-0.393-0.341-2.787-0.396-3.129
			c-0.054,0.341-0.301,2.878-0.375,3.271c-0.329,1.748-0.657,3.582-1.248,3.882c-1.374,0.697-5.942,1.199-5.942,1.199
			s5.665-0.131,6.264,1.616c0.326,0.951,0.68,3.079,0.946,4.783c0.101,0.649,0.296,2.639,0.355,2.941
			c0.058-0.302,0.348-2.63,0.396-2.981c0.264-1.968,0.579-3.792,0.906-4.742c0.6-1.747,6.264-1.616,6.264-1.616
			S186.788,25.306,185.413,24.608z"/>
	</g>
</g>
</svg>
